<svg width="627" height="799" viewBox="0 0 627 799" fill="none" xmlns="http://www.w3.org/2000/svg">
<path d="M500.671 376.108C497.275 363.556 491.274 351.75 482.108 342.464C475.134 335.417 466.693 330.161 457.61 326.364C447.603 322.169 436.705 320.295 425.874 321.24C411.646 322.467 398.441 328.586 386.027 335.351C379.861 338.717 359.567 350.888 355.066 357.968C350.483 365.181 361.496 384.846 372.525 378.893C375.838 377.103 388.22 368.049 391.352 365.943C397.435 361.848 403.585 357.802 409.866 353.988C416.839 349.743 423.302 346.228 431.314 344.686C453.422 340.458 473.749 352.91 488.224 368.713C491.043 371.78 493.698 374.997 496.204 378.33C497.011 379.922 499.122 379.855 500.193 378.777C500.968 378.131 501.298 377.136 500.671 376.108Z" fill="#481B03"/>
<path d="M130.329 376.108C133.725 363.556 139.726 351.75 148.892 342.464C155.866 335.417 164.307 330.161 173.39 326.364C183.397 322.169 194.295 320.295 205.126 321.24C219.354 322.467 232.559 328.586 244.973 335.351C251.139 338.717 271.433 350.888 275.934 357.968C280.517 365.181 269.504 384.846 258.475 378.893C255.162 377.103 242.78 368.049 239.648 365.943C233.565 361.848 227.415 357.802 221.134 353.988C214.161 349.743 207.698 346.228 199.686 344.686C177.578 340.458 157.251 352.91 142.776 368.713C139.957 371.78 137.302 374.997 134.796 378.33C133.989 379.922 131.878 379.855 130.807 378.777C130.032 378.131 129.702 377.136 130.329 376.108Z" fill="#481B03"/>
</svg>
