<svg width="627" height="799" viewBox="0 0 627 799" fill="none" xmlns="http://www.w3.org/2000/svg">
<path d="M269.386 428.735C269.386 417.459 264.996 406.848 257.009 398.862C249.033 390.885 238.422 386.495 227.135 386.485C215.848 386.474 205.259 390.885 197.272 398.872C189.296 406.848 184.905 417.459 184.895 428.746L184.895 429.042L202.35 429.042L202.35 428.746C202.35 422.124 204.931 415.904 209.617 411.217C219.286 401.548 235.016 401.559 244.674 411.217C249.361 415.904 251.942 422.124 251.942 428.746L251.942 429.042L269.396 429.042L269.386 428.735Z" fill="black" fill-opacity="0.35"/>
<path d="M439.386 428.735C439.386 417.459 434.996 406.848 427.009 398.862C419.033 390.885 408.422 386.495 397.135 386.485C385.848 386.474 375.259 390.885 367.272 398.872C359.296 406.848 354.905 417.459 354.895 428.746L354.895 429.042L372.35 429.042L372.35 428.746C372.35 422.124 374.931 415.904 379.617 411.217C389.286 401.548 405.016 401.559 414.674 411.217C419.361 415.904 421.942 422.124 421.942 428.746L421.942 429.042L439.396 429.042L439.386 428.735Z" fill="black" fill-opacity="0.35"/>
</svg>
