<svg width="627" height="799" viewBox="0 0 627 799" fill="none" xmlns="http://www.w3.org/2000/svg">
<path fill-rule="evenodd" clip-rule="evenodd" d="M427.203 387.252C417.545 378.336 404.596 373.088 390.558 373.991C365.749 375.586 345.229 397.02 346.981 422.353C348.518 444.586 367.789 462.96 390.529 461.297C410.335 459.849 426.687 442.648 425.081 422.348C423.694 404.815 408.4 390.343 390.389 391.865C374.98 393.166 362.273 406.65 363.736 422.527C364.975 435.966 376.812 447.052 390.706 445.668C402.324 444.511 411.882 434.218 410.556 422.151C409.462 412.202 400.585 404.016 390.195 405.271C381.765 406.29 374.829 413.876 376.032 422.746C376.989 429.807 383.43 435.628 390.932 434.484C391.346 434.42 391.744 434.275 392.101 434.057C392.459 433.84 392.771 433.554 393.018 433.216C393.265 432.878 393.444 432.494 393.543 432.087C393.642 431.68 393.659 431.258 393.595 430.843C393.467 430.007 393.012 429.256 392.33 428.755C391.649 428.254 390.796 428.044 389.96 428.171C386.285 428.732 382.866 425.642 382.358 421.896C381.67 416.825 385.876 412.22 390.968 411.605C397.583 410.806 403.491 416.262 404.216 422.854C405.129 431.164 398.311 438.499 390.066 439.32C379.911 440.332 371.016 432.009 370.09 421.957C368.97 409.806 378.923 399.234 390.934 398.219C405.231 397.011 417.61 408.719 418.727 422.844C420.04 439.44 406.453 453.738 390.065 454.936C371.02 456.328 354.649 440.723 353.349 421.916C351.852 400.269 369.593 381.733 390.97 380.359C415.368 378.791 436.222 398.806 437.698 422.907C439.371 450.211 416.975 473.49 390.001 475.033C389.582 475.056 389.172 475.161 388.794 475.343C388.417 475.525 388.078 475.779 387.799 476.092C387.52 476.404 387.305 476.769 387.167 477.165C387.029 477.561 386.97 477.98 386.994 478.399C387.018 478.817 387.125 479.227 387.308 479.605C387.49 479.982 387.746 480.32 388.059 480.599C388.373 480.878 388.738 481.092 389.135 481.23C389.531 481.367 389.951 481.425 390.369 481.401C420.788 479.66 445.963 453.505 444.066 422.529C443.222 408.759 436.86 396.168 427.203 387.252Z" fill="black" fill-opacity="0.35"/>
<path fill-rule="evenodd" clip-rule="evenodd" d="M197.093 458.948C206.805 467.805 219.785 472.974 233.818 471.986C258.617 470.24 279.006 448.682 277.1 423.36C275.428 401.136 256.045 382.88 233.317 384.681C213.52 386.25 197.272 403.55 199.002 423.84C200.495 441.364 215.877 455.742 233.878 454.111C249.279 452.716 261.904 439.156 260.344 423.287C259.024 409.857 247.119 398.843 233.234 400.311C221.624 401.539 212.128 411.89 213.528 423.948C214.682 433.89 223.609 442.022 233.991 440.704C242.414 439.634 249.304 432.006 248.048 423.143C247.047 416.088 240.571 410.306 233.076 411.497C232.662 411.563 232.266 411.71 231.909 411.93C231.553 412.15 231.243 412.438 230.998 412.777C230.753 413.117 230.577 413.501 230.48 413.909C230.384 414.317 230.368 414.739 230.435 415.153C230.568 415.988 231.028 416.737 231.713 417.234C232.397 417.731 233.251 417.936 234.086 417.803C237.758 417.22 241.196 420.289 241.727 424.032C242.445 429.099 238.267 433.729 233.179 434.375C226.569 435.214 220.628 429.794 219.864 423.207C218.899 414.902 225.673 407.526 233.913 406.655C244.061 405.581 253.006 413.85 253.994 423.896C255.187 436.04 245.299 446.673 233.295 447.761C219.005 449.055 206.555 437.422 205.352 423.305C203.938 406.717 217.438 392.337 233.819 391.039C252.855 389.531 269.32 405.036 270.735 423.836C272.363 445.473 254.735 464.116 233.367 465.62C208.979 467.337 188.004 447.449 186.381 423.357C184.543 396.064 206.796 372.65 233.761 370.942C234.179 370.917 234.589 370.809 234.965 370.625C235.342 370.441 235.679 370.185 235.956 369.87C236.233 369.556 236.446 369.19 236.582 368.793C236.718 368.397 236.774 367.977 236.747 367.559C236.72 367.14 236.611 366.731 236.426 366.354C236.241 365.978 235.984 365.641 235.668 365.364C235.353 365.087 234.986 364.875 234.589 364.74C234.192 364.605 233.772 364.55 233.354 364.577C202.946 366.502 177.93 392.81 180.016 423.774C180.943 437.539 187.382 450.091 197.093 458.948Z" fill="black" fill-opacity="0.35"/>
</svg>
