<svg width="627" height="799" viewBox="0 0 627 799" fill="none" xmlns="http://www.w3.org/2000/svg">
<path d="M184.905 411.556C184.905 422.833 189.296 433.443 197.282 441.43C205.259 449.406 215.869 453.796 227.156 453.807C238.444 453.817 249.033 449.406 257.019 441.419C264.996 433.443 269.386 422.833 269.396 411.545L269.396 411.249L251.942 411.249L251.942 411.545C251.942 418.167 249.361 424.388 244.674 429.074C235.005 438.743 219.275 438.732 209.617 429.074C204.931 424.388 202.35 418.167 202.35 411.545L202.35 411.249L184.895 411.249L184.905 411.556Z" fill="black" fill-opacity="0.35"/>
<path d="M354.905 411.556C354.905 422.833 359.296 433.443 367.282 441.43C375.259 449.406 385.869 453.796 397.156 453.807C408.444 453.817 419.033 449.406 427.019 441.419C434.996 433.443 439.386 422.833 439.396 411.545L439.396 411.249L421.942 411.249L421.942 411.545C421.942 418.167 419.361 424.388 414.674 429.074C405.005 438.743 389.275 438.732 379.617 429.074C374.931 424.388 372.35 418.167 372.35 411.545L372.35 411.249L354.895 411.249L354.905 411.556Z" fill="black" fill-opacity="0.35"/>
</svg>
