<svg width="627" height="799" viewBox="0 0 627 799" fill="none" xmlns="http://www.w3.org/2000/svg">
<path d="M520.593 391.654L498.321 383.941C494.586 382.647 490.929 381.085 487.528 379.015C484.167 376.969 480.575 375.235 476.767 373.882C454.506 365.99 418.755 360.009 374.728 376.469C359.628 382.115 347.9 393.433 341.356 407.283C334 402.726 323.472 400.378 312.997 400.378C302.526 400.378 291.999 402.726 284.644 407.283C278.1 393.433 266.372 382.115 251.272 376.469C207.245 360.009 171.494 365.99 149.233 373.882C145.424 375.235 141.832 376.969 138.471 379.015C135.071 381.085 131.413 382.647 127.679 383.941L105.407 391.654C103.373 392.358 102 394.349 102 396.594V413.232C102 414.422 102.389 415.576 103.103 416.501L108.48 423.474C109.265 424.492 109.62 425.776 109.533 427.081C109.279 430.888 109.366 434.754 109.879 438.644C120.39 518.466 180.39 523.648 186.346 523.955C192.165 524.665 197.639 525 202.833 525C266.788 524.993 284.774 474.09 289.74 442.037C290.567 436.695 290.639 431.372 290.046 426.182C290.432 425.284 290.7 424.316 290.762 423.283C292.157 421.323 299.911 417.159 312.997 417.159C326.089 417.159 333.844 421.323 335.238 423.283C335.3 424.315 335.569 425.284 335.955 426.181C335.361 431.371 335.433 436.695 336.26 442.037C341.226 474.09 359.212 524.993 423.167 525C428.361 525 433.835 524.665 439.654 523.955C445.61 523.648 505.61 518.466 516.121 438.644C516.633 434.754 516.721 430.888 516.466 427.081C516.379 425.776 516.735 424.492 517.52 423.474L522.897 416.501C523.611 415.576 524 414.422 524 413.232V396.594C524 394.349 522.626 392.358 520.593 391.654ZM276.563 439.798C268.372 492.667 238.46 516.302 187.675 510.042L186.991 509.994C184.775 509.953 132.498 508.103 123.095 436.732C120.266 415.254 133.065 394.391 153.521 387.126C173.762 379.938 206.385 374.551 246.788 389.632C260.812 394.875 270.942 406.408 275.014 419.964C275.796 422.569 276.337 425.231 276.643 427.96C277.079 431.849 277.182 435.802 276.563 439.798ZM502.905 436.732C493.502 508.103 441.225 509.953 439.009 509.994L438.325 510.042C387.54 516.302 357.628 492.667 349.437 439.798C348.818 435.803 348.921 431.85 349.357 427.961C349.663 425.232 350.204 422.568 350.987 419.963C355.059 406.408 365.188 394.875 379.212 389.632C419.615 374.551 452.238 379.938 472.479 387.126C492.935 394.391 505.734 415.254 502.905 436.732Z" fill="#810808"/>
</svg>
