<svg width="627" height="799" viewBox="0 0 627 799" fill="none" xmlns="http://www.w3.org/2000/svg">
<g clip-path="url(#clip0_48_93)">
<path d="M93.6168 50.5411L96.7622 48.0136L92.7296 47.8728C79.089 47.3965 63.9572 52.8706 47.2564 64.4673C65.0705 35.1582 85.3841 15.4231 107.919 4.28471C131.994 -7.61435 158.754 -9.77683 187.999 -3.1206L189.02 -2.88829L189.59 -3.76619C196.516 -14.4304 210.645 -26.9583 230.096 -38.2212C249.516 -49.4658 274.126 -59.383 301.893 -64.8981C355.23 -75.4918 420.176 -69.842 482.404 -26.1985C431.783 -40.9476 394.765 -23.1437 381.007 -0.689781L379.147 2.34679L382.619 1.55648C411.869 -5.10075 450.823 -4.12361 487.124 6.71687C520.976 16.8258 552.348 35.4555 571.448 64.2658C554.863 52.8086 539.829 47.4013 526.27 47.8749L522.238 48.0157L525.383 50.5432C584.457 98.0133 601.73 161.524 603.367 218.051C604.694 263.85 595.766 304.886 590.506 329.06C589.271 334.737 588.239 339.483 587.588 343.143C582.732 363.494 579.116 374.938 575.683 382.411C572.284 389.811 569.06 393.335 564.813 397.864L564.556 398.139C556.301 406.939 544.726 419.278 522.663 467.499C526.178 413.375 511.965 380.274 495.576 350.365C493.041 345.738 490.46 341.195 487.887 336.668C472.982 310.439 458.379 284.744 454.908 246.423L454.638 243.439L452.411 245.444C430.277 265.369 418.419 299.496 416.853 330.83C384.077 317.519 359.366 292.521 351.296 255.233L350.618 252.096L348.647 254.629C326.488 283.105 328.861 326.838 347.229 363.956C318.305 348.452 302.398 336.419 292.202 321.325C281.497 305.476 276.973 286.105 270.641 255.249L267.72 255.171C260.295 283.566 260.326 311.955 266.884 340.32C227.495 327.576 195.964 293.764 166.87 245.779L164.505 241.878L164.094 246.421C160.623 284.742 146.02 310.437 131.114 336.667C128.541 341.193 125.96 345.736 123.425 350.363C107.036 380.272 92.8222 413.373 96.337 467.497C74.2736 419.274 62.6989 406.936 54.4439 398.136L54.1865 397.861C49.9395 393.332 46.7157 389.808 43.3168 382.408C39.8843 374.935 36.2684 363.492 31.4117 343.141C30.7615 339.482 29.7289 334.736 28.4941 329.06C23.2346 304.887 14.3059 263.85 15.6325 218.05C17.2698 161.522 34.5427 98.0112 93.6168 50.5411Z" fill="#372C27" stroke="#281212" stroke-width="3"/>
</g>
<defs>
<clipPath id="clip0_48_93">
<rect width="627" height="799" fill="white"/>
</clipPath>
</defs>
</svg>
