<svg width="627" height="799" viewBox="0 0 627 799" fill="none" xmlns="http://www.w3.org/2000/svg">
<path d="M609.28 485.534C585.879 550.715 534.179 602.978 445.11 624.911C482.299 552.026 502.109 483.402 490.265 422.934C478.116 360.91 432.825 308.149 340.762 268.337L333.888 265.364L337.598 271.87C360.148 311.407 390.162 337.556 425.548 353.983C387.275 352.116 355.713 345.452 325.916 331.162C292.695 315.23 261.475 289.728 225.546 250.428L221.833 246.366L221.217 251.835C217.748 282.615 205.85 306.122 191.693 327.982C187.043 335.163 182.106 342.219 177.14 349.318C167.094 363.678 156.928 378.208 148.774 394.281C136.476 418.524 128.533 446.581 131.485 483.985C134.357 520.386 147.536 565.516 176.84 624.503C57.445 599.827 1.17105 484.284 2.52375 359.21C3.89472 232.445 64.5483 97.3249 177.155 39.949L177.28 39.8854L177.397 39.8083C187.123 33.3917 197.96 32.8799 211.527 32.2392C213.557 32.1434 215.647 32.0447 217.804 31.9229C234.125 31.0013 253.326 28.6771 276.166 15.1868C346.065 -2.21362 414.241 21.6317 471.622 68.9296C529.112 116.318 575.555 187.107 601.598 262.824C627.647 338.557 633.191 418.932 609.28 485.534Z" fill="#D0D0D0" stroke="#B8B8B8" stroke-width="5"/>
</svg>
