<svg fill="none" height="799" viewBox="0 0 627 799" width="627" xmlns="http://www.w3.org/2000/svg" xmlns:xlink="http://www.w3.org/1999/xlink"><mask id="a" fill="#fff"><path clip-rule="evenodd" d="m346 35c16.389 0 30.585 9.3869 37.506 23.0775 3.051-.7049 6.229-1.0775 9.494-1.0775 5.386 0 10.535 1.0139 15.267 2.8611 5.054-4.2801 11.592-6.8611 18.733-6.8611 8.783 0 16.655 3.9048 21.973 10.0732 5.953-3.2353 12.775-5.0732 20.027-5.0732 23.196 0 42 18.804 42 42 0 3.442-.414 6.787-1.195 9.988 8.128 2.599 15.179 7.605 20.315 14.181 3.168-.764 6.477-1.169 9.88-1.169 23.196 0 42 18.804 42 42 0 9.871-3.405 18.946-9.105 26.116 10.617 4.307 18.105 14.721 18.105 26.884 0 7.245-2.657 13.87-7.05 18.953 5.574 5.285 9.05 12.76 9.05 21.047 0 7.075-2.534 13.559-6.743 18.592 3.03 5.805 4.743 12.407 4.743 19.408 0 6.316-1.394 12.307-3.892 17.681 12.494 7.278 20.892 20.818 20.892 36.319 0 23.196-18.804 42-42 42-15.574 0-29.169-8.477-36.421-21.069-22.069-1.254-39.579-19.548-39.579-41.931 0-2.18.166-4.321.486-6.411-5.929-7.242-9.486-16.5-9.486-26.589 0-9.888 3.417-18.978 9.134-26.153-.215-.293-.426-.589-.634-.887-7.587 10.903-20.21 18.04-34.5 18.04-16.07 0-30.032-9.025-37.094-22.283-1.609.187-3.246.283-4.906.283-12.038 0-22.893-5.065-30.551-13.179-3.259 19.952-20.576 35.179-41.449 35.179-20.28 0-37.203-14.373-41.137-33.489-7.526 7.122-17.684 11.489-28.863 11.489-12.539 0-23.795-5.495-31.491-14.209-6.479 14.839-21.283 25.209-38.509 25.209-10.986 0-20.987-4.218-28.471-11.123-6.913 13.715-21.122 23.123-37.529 23.123-.907 0-1.808-.029-2.701-.085 7.247 7.547 11.701 17.796 11.701 29.085 0 21.821-16.641 39.755-37.924 41.805-4.047 18.969-20.9 33.195-41.076 33.195-23.196 0-42-18.804-42-42 0-18.258 11.6502-33.795 27.9222-39.583-10.837-7.595-17.9222-20.179-17.9222-34.417 0-12.819 5.7427-24.296 14.7958-32-9.0531-7.704-14.7958-19.181-14.7958-32 0-13.943 6.7947-26.3 17.2536-33.939-3.9651-6.411-6.2536-13.969-6.2536-22.061 0-23.196 18.804-42 42-42 4.1088 0 8.0798.59 11.8329 1.69 5.2611-17.1895 21.2541-29.69 40.1671-29.69.194 0 .387.0013.58.0039 3.331-19.8659 20.608-35.0039 41.42-35.0039 15.455 0 28.959 8.3471 36.252 20.779 4.565-18.2563 21.077-31.779 40.748-31.779 19.154 0 35.314 12.8219 40.363 30.3508 2.452-1.2157 5.039-2.1991 7.732-2.9213 4.331-18.5846 21.001-32.4295 40.905-32.4295z" fill="#fff" fill-rule="evenodd"/></mask><path clip-rule="evenodd" d="m346 35c16.389 0 30.585 9.3869 37.506 23.0775 3.051-.7049 6.229-1.0775 9.494-1.0775 5.386 0 10.535 1.0139 15.267 2.8611 5.054-4.2801 11.592-6.8611 18.733-6.8611 8.783 0 16.655 3.9048 21.973 10.0732 5.953-3.2353 12.775-5.0732 20.027-5.0732 23.196 0 42 18.804 42 42 0 3.442-.414 6.787-1.195 9.988 8.128 2.599 15.179 7.605 20.315 14.181 3.168-.764 6.477-1.169 9.88-1.169 23.196 0 42 18.804 42 42 0 9.871-3.405 18.946-9.105 26.116 10.617 4.307 18.105 14.721 18.105 26.884 0 7.245-2.657 13.87-7.05 18.953 5.574 5.285 9.05 12.76 9.05 21.047 0 7.075-2.534 13.559-6.743 18.592 3.03 5.805 4.743 12.407 4.743 19.408 0 6.316-1.394 12.307-3.892 17.681 12.494 7.278 20.892 20.818 20.892 36.319 0 23.196-18.804 42-42 42-15.574 0-29.169-8.477-36.421-21.069-22.069-1.254-39.579-19.548-39.579-41.931 0-2.18.166-4.321.486-6.411-5.929-7.242-9.486-16.5-9.486-26.589 0-9.888 3.417-18.978 9.134-26.153-.215-.293-.426-.589-.634-.887-7.587 10.903-20.21 18.04-34.5 18.04-16.07 0-30.032-9.025-37.094-22.283-1.609.187-3.246.283-4.906.283-12.038 0-22.893-5.065-30.551-13.179-3.259 19.952-20.576 35.179-41.449 35.179-20.28 0-37.203-14.373-41.137-33.489-7.526 7.122-17.684 11.489-28.863 11.489-12.539 0-23.795-5.495-31.491-14.209-6.479 14.839-21.283 25.209-38.509 25.209-10.986 0-20.987-4.218-28.471-11.123-6.913 13.715-21.122 23.123-37.529 23.123-.907 0-1.808-.029-2.701-.085 7.247 7.547 11.701 17.796 11.701 29.085 0 21.821-16.641 39.755-37.924 41.805-4.047 18.969-20.9 33.195-41.076 33.195-23.196 0-42-18.804-42-42 0-18.258 11.6502-33.795 27.9222-39.583-10.837-7.595-17.9222-20.179-17.9222-34.417 0-12.819 5.7427-24.296 14.7958-32-9.0531-7.704-14.7958-19.181-14.7958-32 0-13.943 6.7947-26.3 17.2536-33.939-3.9651-6.411-6.2536-13.969-6.2536-22.061 0-23.196 18.804-42 42-42 4.1088 0 8.0798.59 11.8329 1.69 5.2611-17.1895 21.2541-29.69 40.1671-29.69.194 0 .387.0013.58.0039 3.331-19.8659 20.608-35.0039 41.42-35.0039 15.455 0 28.959 8.3471 36.252 20.779 4.565-18.2563 21.077-31.779 40.748-31.779 19.154 0 35.314 12.8219 40.363 30.3508 2.452-1.2157 5.039-2.1991 7.732-2.9213 4.331-18.5846 21.001-32.4295 40.905-32.4295z" fill="#a49726" fill-rule="evenodd"/><path d="m383.506 58.0775-2.677 1.3535 1.061 2.099 2.291-.5295zm24.761 1.7836-1.09 2.7947 1.665.6501 1.364-1.1555zm40.706 3.2121-2.272 1.959 1.579 1.832 2.125-1.1551zm60.832 46.9148-2.914-.711-.663 2.717 2.663.851zm20.315 14.181-2.365 1.846 1.19 1.523 1.878-.453zm42.775 66.947-2.348-1.867-2.496 3.14 3.716 1.507zm11.055 45.837-2.269-1.962-1.874 2.168 2.079 1.971zm2.307 39.639-2.302-1.924-1.285 1.537.927 1.776zm.851 37.089-2.721-1.264-1.152 2.48 2.363 1.377zm-57.529 57.25 2.6-1.497-.81-1.406-1.62-.092zm-39.093-48.342 2.966.454.202-1.321-.847-1.034zm-.352-52.742 2.347 1.869 1.431-1.796-1.36-1.85zm-.634-.887 2.463-1.714-2.463-3.539-2.463 3.539zm-71.594-4.243 2.648-1.411-.962-1.806-2.033.237zm-35.457-12.896 2.182-2.059-4.165-4.413-.978 5.988zm-82.586 1.69 2.938-.604-1.086-5.279-3.914 3.704zm-60.354-2.72 2.249-1.986-3.115-3.526-1.883 4.312zm-66.98 14.086 2.034-2.205-2.923-2.696-1.79 3.551zm-40.23 23.038.19-2.994-7.692-.489 5.338 5.56zm-26.223 70.89-.288-2.986-2.188.21-.458 2.15zm-55.1538-48.388 1.0053 2.827 5.4757-1.948-4.7592-3.335zm-3.1264-66.417 1.9442 2.285 2.6849-2.285-2.6849-2.285zm2.4578-65.939 1.7695 2.423 2.243-1.639-1.461-2.362zm47.5793-62.371-.8437 2.879 2.8447.834.8671-2.835zm40.7471-29.6861-.041 2.9998 2.574.0348.426-2.5385zm77.672-14.2249-2.587 1.518 3.716 6.3351 1.782-7.1254zm81.111-1.4282-2.882.8305.995 3.4544 3.22-1.5973zm7.732-2.9213.777 2.8977 1.737-.4657.408-1.7511zm81.088-10.7054c-7.411-14.6612-22.619-24.7241-40.183-24.7241v6c15.214 0 28.398 8.7109 34.829 21.431zm6.817-2.7241c-3.494 0-6.899.3988-10.169 1.1545l1.35 5.846c2.831-.6541 5.783-1.0005 8.819-1.0005zm16.358 3.0665c-5.074-1.9808-10.593-3.0665-16.358-3.0665v6c5.007 0 9.787.942 14.177 2.6558zm17.642-7.0665c-7.877 0-15.097 2.8501-20.671 7.5719l3.877 4.5785c4.532-3.8384 10.389-6.1504 16.794-6.1504zm24.245 11.1143c-5.864-6.8012-14.552-11.1143-24.245-11.1143v6c7.874 0 14.928 3.4966 19.701 9.0322zm17.755-6.1143c-7.765 0-15.078 1.969-21.46 5.4374l2.865 5.2717c5.525-3.0024 11.856-4.7091 18.595-4.7091zm45 45c0-24.8528-20.147-45-45-45v6c21.539 0 39 17.4609 39 39zm-1.28 10.699c.837-3.432 1.28-7.016 1.28-10.699h-6c0 3.2-.385 6.307-1.109 9.277zm19.764 11.623c-5.499-7.041-13.052-12.405-21.765-15.192l-1.828 5.715c7.542 2.412 14.092 7.06 18.864 13.17zm7.516-2.322c-3.642 0-7.186.433-10.584 1.252l1.407 5.833c2.94-.709 6.012-1.085 9.177-1.085zm45 45c0-24.853-20.147-45-45-45v6c21.539 0 39 17.461 39 39zm-9.757 27.983c6.107-7.681 9.757-17.41 9.757-27.983h-6c0 9.169-3.16 17.591-8.453 24.249zm18.757 25.017c0-13.426-8.267-24.913-19.977-29.664l-2.256 5.56c9.525 3.864 16.233 13.204 16.233 24.104zm-7.78 20.914c4.846-5.607 7.78-12.922 7.78-20.914h-6c0 6.498-2.38 12.433-6.319 16.991zm9.78 19.086c0-9.144-3.839-17.396-9.985-23.224l-4.129 4.354c5.001 4.742 8.114 11.44 8.114 18.87zm-7.442 20.517c4.644-5.554 7.442-12.712 7.442-20.517h-6c0 6.346-2.27 12.154-6.045 16.668zm5.442 17.483c0-7.496-1.835-14.573-5.084-20.796l-5.319 2.777c2.812 5.386 4.403 11.512 4.403 18.019zm-4.172 18.946c2.678-5.762 4.172-12.184 4.172-18.946h-6c0 5.871-1.295 11.431-3.613 16.417zm21.172 35.054c0-16.612-9.003-31.118-22.382-38.911l-3.02 5.185c11.61 6.762 19.402 19.336 19.402 33.726zm-45 45c24.853 0 45-20.147 45-45h-6c0 21.539-17.461 39-39 39zm-39.02-22.571c7.765 13.483 22.33 22.571 39.02 22.571v-6c-14.458 0-27.082-7.866-33.821-19.566zm2.769-4.493c-20.49-1.164-36.749-18.152-36.749-38.936h-6c0 23.983 18.76 43.583 42.409 44.927zm-36.749-38.936c0-2.027.154-4.016.452-5.957l-5.931-.908c-.343 2.24-.521 4.533-.521 6.865zm-15-33c0 10.807 3.813 20.731 10.165 28.489l4.642-3.801c-5.506-6.725-8.807-15.317-8.807-24.688zm9.788-28.023c-6.125 7.688-9.788 17.432-9.788 28.023h6c0-9.185 3.171-17.62 8.481-24.284zm-.751 2.696c.223.32.45.637.68.95l4.835-3.553c-.2-.272-.397-.547-.589-.824zm-32.037 19.327c15.313 0 28.839-7.652 36.963-19.327l-4.926-3.427c-7.049 10.132-18.77 16.754-32.037 16.754zm-39.742-23.873c7.562 14.197 22.52 23.873 39.742 23.873v-6c-14.918 0-27.885-8.375-34.446-20.694zm-2.258 1.873c1.776 0 3.529-.103 5.253-.304l-.694-5.959c-1.494.173-3.015.263-4.559.263zm-32.733-14.12c8.201 8.69 19.835 14.12 32.733 14.12v-6c-11.178 0-21.255-4.699-28.369-12.238zm-39.267 36.12c22.367 0 40.918-16.316 44.41-37.696l-5.922-.967c-3.025 18.525-19.108 32.663-38.488 32.663zm-44.075-35.884c4.215 20.482 22.343 35.884 44.075 35.884v-6c-18.828 0-34.546-13.345-38.199-31.093zm-25.925 13.884c11.976 0 22.865-4.682 30.925-12.31l-4.124-4.358c-6.991 6.616-16.419 10.668-26.801 10.668zm-33.74-15.223c8.241 9.331 20.305 15.223 33.74 15.223v-6c-11.643 0-22.092-5.098-29.242-13.195zm-36.26 26.223c18.461 0 34.319-11.116 41.258-27.008l-5.498-2.401c-6.019 13.784-19.769 23.409-35.76 23.409zm-30.505-11.918c8.016 7.396 18.736 11.918 30.505 11.918v-6c-10.203 0-19.485-3.914-26.437-10.328zm-35.495 23.918c17.583 0 32.805-10.085 40.208-24.772l-5.358-2.701c-6.423 12.743-19.619 21.473-34.85 21.473zm-2.891-.091c.956.06 1.92.091 2.891.091v-6c-.844 0-1.681-.027-2.511-.079zm14.891 26.091c0-12.094-4.775-23.08-12.537-31.163l-4.328 4.155c6.732 7.011 10.865 16.524 10.865 27.008zm-40.637 44.791c22.807-2.196 40.637-21.41 40.637-44.791h-6c0 20.261-15.452 36.916-35.212 38.819zm-41.363 33.209c21.6207 0 39.674-15.245 44.01-35.569l-5.868-1.252c-3.7576 17.613-19.4108 30.821-38.142 30.821zm-45-45c0 24.853 20.1472 45 45 45v-6c-21.5391 0-39-17.461-39-39zm29.9169-42.409c-17.4302 6.2-29.9169 22.842-29.9169 42.409h6c0-16.949 10.8137-31.38 25.9275-36.756zm-19.9169-31.591c0 15.258 7.5966 28.741 19.2004 36.874l3.4436-4.913c-10.0702-7.058-16.644-18.742-16.644-31.961zm15.8515-34.285c-9.6942 8.25-15.8515 20.55-15.8515 34.285h6c0-11.902 5.3281-22.557 13.74-29.715zm-15.8515-29.715c0 13.735 6.1573 26.035 15.8515 34.285l3.8885-4.57c-8.4119-7.158-13.74-17.813-13.74-29.715zm18.4842-36.362c-11.199 8.18-18.4842 21.42-18.4842 36.362h6c0-12.945 6.3042-24.418 16.0231-31.516zm-7.4842-19.638c0 8.665 2.4523 16.767 6.7021 23.639l5.103-3.156c-3.6804-5.951-5.8051-12.964-5.8051-20.483zm45-45c-24.8528 0-45 20.147-45 45h6c0-21.539 17.4609-39 39-39zm12.6766 1.811c-4.0243-1.179-8.2793-1.811-12.6766-1.811v6c3.8203 0 7.5073.548 10.9892 1.569zm39.3234-29.811c-20.268 0-37.399 13.3971-43.0358 31.812l5.7368 1.756c4.887-15.964 19.742-27.568 37.299-27.568zm.621.0042c-.207-.0028-.414-.0042-.621-.0042v6c.18 0 .36.0012.539.0037zm41.379-35.0042c-22.302 0-40.809 16.2206-44.379 37.5078l5.918.9922c3.092-18.4446 19.138-32.5 38.461-32.5zm38.84 22.261c-7.809-13.312-22.278-22.261-38.84-22.261v6c14.347 0 26.888 7.7453 33.665 19.297zm38.16-33.261c-21.08 0-38.767 14.4914-43.658 34.0513l5.821 1.4554c4.239-16.9526 19.575-29.5067 37.837-29.5067zm43.246 32.5203c-5.41-18.7792-22.719-32.5203-43.246-32.5203v6c17.782 0 32.791 11.9027 37.481 28.1813zm4.072-4.9884c-2.887.7742-5.66 1.8284-8.287 3.1313l2.665 5.3752c2.276-1.1285 4.677-2.041 7.176-2.7112zm41.682-32.5319c-21.329 0-39.186 14.8362-43.826 34.7486l5.843 1.3618c4.022-17.2569 19.505-30.1104 37.983-30.1104z" fill="#918516" mask="url(#a)"/></svg>