<svg width="627" height="799" viewBox="0 0 627 799" fill="none" xmlns="http://www.w3.org/2000/svg">
<g clip-path="url(#clip0_48_93)">
<path d="M460.42 652.306C533.044 507.657 537.805 435.655 521.883 381.137C515.748 360.131 506.537 341.736 497.109 322.91C494.279 317.26 491.43 311.57 488.639 305.76C476.526 280.544 465.376 252.827 461.172 215.529L460.802 212.248L458.574 214.685C374.616 306.518 271.846 354.035 168.033 358.376C212.94 338.069 245.921 296.991 274.199 247.412L276.426 243.508L272.301 245.292C162.29 292.866 113.848 351.499 104.886 420.986C96.038 489.598 125.778 568.351 171.429 656.646C33.7948 639.433 -50.2444 585.166 -83.7211 513.719C-117.416 441.805 -100.161 351.889 -33.704 263.628L-33.4822 263.333L-33.4223 262.969C-13.3147 140.845 36.5392 40.8062 107.027 -21.2738C177.421 -83.2702 268.481 -107.501 371.421 -77.9996C398.592 -61.8933 421.401 -59.1236 440.893 -58.0226C443.452 -57.8781 445.944 -57.7615 448.373 -57.6477C464.592 -56.8887 478.032 -56.2596 490.055 -48.3276L490.271 -48.1847L490.523 -48.1228C500.751 -45.6132 511.65 -37.8322 522.899 -25.4977C534.124 -13.1892 545.572 3.51364 556.922 23.6151C579.619 63.8137 601.828 117.427 621.04 176.195C659.442 293.661 685.773 431.405 680.236 523.357C645.51 609.425 558.065 634.279 460.42 652.306Z" fill="#DED47B" stroke="#A49726" stroke-width="3"/>
</g>
<defs>
<clipPath id="clip0_48_93">
<rect width="627" height="799" fill="white"/>
</clipPath>
</defs>
</svg>
