<svg width="627" height="799" viewBox="0 0 627 799" fill="none" xmlns="http://www.w3.org/2000/svg">
<g clip-path="url(#clip0_48_93)">
<path d="M449.182 71.401L450.311 71.8655L450.033 73.3738C663.987 154.802 673.574 463.95 445.245 549.347C465.085 506.107 477.991 471.397 485.205 443.432C492.597 414.777 494.041 393.098 490.764 376.534C487.474 359.905 479.436 348.494 468.058 340.432C456.74 332.411 442.192 327.757 425.946 324.434C414.111 322.014 401.259 320.281 387.998 318.493C383.068 317.828 378.081 317.156 373.069 316.438C354.53 313.781 335.566 310.49 317.484 304.639C281.394 292.96 248.826 271.094 230.412 223.597L228.356 218.294L227.53 223.921C223.57 250.876 211.947 269.46 198.304 286.05C193.744 291.596 188.987 296.886 184.205 302.204C181.801 304.878 179.39 307.559 176.994 310.283C169.862 318.394 162.929 326.821 156.967 336.34C145.01 355.43 137.023 378.813 138.865 412.817C140.664 446.045 151.846 489.378 177.79 548.749C-39.4392 436.18 -20.4711 157.085 166.037 75.375L167.411 74.7733L166.809 73.3995C156.005 48.7234 153.648 27.2009 157.504 8.79881C161.359 -9.59934 171.452 -25.0191 185.794 -37.4459C214.528 -62.342 260.243 -75.1425 306.29 -75.4926C352.337 -75.8428 398.341 -63.7401 427.646 -39.2648C442.274 -27.0475 452.722 -11.768 457 6.5905C461.278 24.952 459.416 46.5323 449.182 71.401Z" fill="#D28BD8" stroke="#903798" stroke-width="3"/>
</g>
<defs>
<clipPath id="clip0_48_93">
<rect width="627" height="799" fill="white"/>
</clipPath>
</defs>
</svg>
