<svg fill="none" height="799" viewBox="0 0 627 799" width="627" xmlns="http://www.w3.org/2000/svg" xmlns:xlink="http://www.w3.org/1999/xlink"><mask id="a" fill="#fff"><path clip-rule="evenodd" d="m312.5 126c143.087 0 259.434 116.446 262.44 261.253 17.992 2.656 32.06 25.929 32.06 54.247 0 30.1-15.894 54.5-35.5 54.5-1.747 0-3.465-.194-5.144-.568-20.838 109.013-87.086 236.462-250.198 239.512v.056c-1.003 0-2.003-.005-3-.014-.996.009-1.996.014-3 .014v-.056c-163.147-3.05-229.3877-130.554-250.2107-239.582-1.7758.42-3.595.638-5.4473.638-19.6061 0-35.5-24.4-35.5-54.5 0-27.789 13.5475-50.72 31.0561-54.077 2.9188-144.885 119.3009-261.423 262.4439-261.423z" fill="#fff" fill-rule="evenodd"/></mask><path d="m243.5 707.5h140v90h-140z" fill="#f9d6c2" stroke="#daa78b" stroke-width="3"/><path d="m383 712h-135c71.2 0 119.667 58 135 87z" fill="#daa78b" fill-opacity=".25"/><path clip-rule="evenodd" d="m312.5 126c143.087 0 259.434 116.446 262.44 261.253 17.992 2.656 32.06 25.929 32.06 54.247 0 30.1-15.894 54.5-35.5 54.5-1.747 0-3.465-.194-5.144-.568-20.838 109.013-87.086 236.462-250.198 239.512v.056c-1.003 0-2.003-.005-3-.014-.996.009-1.996.014-3 .014v-.056c-163.147-3.05-229.3877-130.554-250.2107-239.582-1.7758.42-3.595.638-5.4473.638-19.6061 0-35.5-24.4-35.5-54.5 0-27.789 13.5475-50.72 31.0561-54.077 2.9188-144.885 119.3009-261.423 262.4439-261.423z" fill="#f9d6c2" fill-rule="evenodd"/><path d="m574.94 387.253-2.999.062.053 2.535 2.508.37zm-8.584 108.179.652-2.928-3.018-.673-.581 3.038zm-250.198 239.512-.056-2.999-2.944.055v2.944zm0 .056v3h3v-3zm-3-.014.028-3h-.028-.028zm-3 .014h-3v3h3zm0-.056h3v-2.944l-2.944-.055zm-250.2107-239.582 2.9467-.562-.5878-3.078-3.0492.721zm-9.8912-107.939.5649 2.946 2.3856-.457.0489-2.429zm527.8839-.233c-3.04-146.388-120.671-264.19-265.44-264.19v6c141.404 0 256.467 115.091 259.441 258.315zm32.06 54.31c0-14.63-3.63-28.071-9.705-38.281-6.053-10.173-14.739-17.432-24.916-18.934l-.877 5.935c7.814 1.154 15.159 6.861 20.637 16.067 5.457 9.171 8.861 21.526 8.861 35.213zm-38.5 57.5c11.151 0 20.849-6.936 27.616-17.325 6.785-10.417 10.884-24.629 10.884-40.175h-6c0 14.554-3.848 27.592-9.911 36.9-6.082 9.336-14.134 14.6-22.589 14.6zm-5.797-.64c1.89.421 3.827.64 5.797.64v-6c-1.524 0-3.023-.169-4.492-.496zm-249.489 239.584c82.439-1.542 140.574-34.567 180.668-81.061 40.012-46.4 61.941-106.068 72.42-160.888l-5.893-1.126c-10.359 54.193-31.973 112.756-71.071 158.096-39.018 45.247-95.562 77.471-176.236 78.98zm2.944-2.944v-.056h-6v.056zm-6.028 2.986c1.006.009 2.015.014 3.028.014v-6c-.994 0-1.985-.005-2.972-.014zm-2.972.014c1.013 0 2.022-.005 3.028-.014l-.056-6c-.987.009-1.978.014-2.972.014zm-3-3.056v.056h6v-.056zm-250.1575-239.019c10.4713 54.827 32.395 114.513 72.4085 160.929 40.094 46.509 98.237 79.548 180.693 81.09l.112-5.999c-80.691-1.509-137.242-33.747-176.261-79.009-39.0991-45.355-60.7073-103.936-71.059-158.136zm-2.5005 3.075c2.0891 0 4.1399-.246 6.1375-.718l-1.3805-5.839c-1.5539.367-3.1415.557-4.757.557zm-38.5-57.5c0 15.546 4.0988 29.758 10.884 40.175 6.7671 10.389 16.4649 17.325 27.616 17.325v-6c-8.4551 0-16.5072-5.264-22.5885-14.6-6.0633-9.308-9.9115-22.346-9.9115-36.9zm33.4913-57.023c-9.8819 1.894-18.2758 9.22-24.125 19.319-5.8704 10.135-9.3663 23.345-9.3663 37.704h6c0-13.43 3.2778-25.58 8.5583-34.697 5.3017-9.154 12.4359-14.972 20.0627-16.434zm263.0087-261.477c-144.826 0-262.4926 117.894-265.4433 264.362l5.9988.121c2.8869-143.302 117.9845-258.483 259.4445-258.483z" fill="#daa78b" mask="url(#a)"/></svg>