<svg width="627" height="799" viewBox="0 0 627 799" fill="none" xmlns="http://www.w3.org/2000/svg">
<rect x="243.5" y="707.5" width="140" height="90" fill="#CD987A" stroke="#B67B59" stroke-width="3"/>
<path d="M383 712H248C319.2 712 367.667 770 383 799V712Z" fill="#B67B59" fill-opacity="0.25"/>
<mask id="path-3-inside-1_48_93" fill="white">
<path fill-rule="evenodd" clip-rule="evenodd" d="M312.5 126C455.587 126 571.934 242.446 574.94 387.253C592.932 389.909 607 413.182 607 441.5C607 471.6 591.106 496 571.5 496C569.753 496 568.035 495.806 566.356 495.432C545.518 604.445 479.27 731.894 316.158 734.944V735C315.155 735 314.155 734.995 313.158 734.986C312.162 734.995 311.162 735 310.158 735V734.944C147.011 731.894 80.7703 604.39 59.9473 495.362C58.1715 495.782 56.3523 496 54.5 496C34.8939 496 19 471.6 19 441.5C19 413.711 32.5475 390.78 50.0561 387.423C52.9749 242.538 169.357 126 312.5 126Z"/>
</mask>
<path fill-rule="evenodd" clip-rule="evenodd" d="M312.5 126C455.587 126 571.934 242.446 574.94 387.253C592.932 389.909 607 413.182 607 441.5C607 471.6 591.106 496 571.5 496C569.753 496 568.035 495.806 566.356 495.432C545.518 604.445 479.27 731.894 316.158 734.944V735C315.155 735 314.155 734.995 313.158 734.986C312.162 734.995 311.162 735 310.158 735V734.944C147.011 731.894 80.7703 604.39 59.9473 495.362C58.1715 495.782 56.3523 496 54.5 496C34.8939 496 19 471.6 19 441.5C19 413.711 32.5475 390.78 50.0561 387.423C52.9749 242.538 169.357 126 312.5 126Z" fill="#CD987A"/>
<path d="M574.94 387.253L571.941 387.315L571.994 389.85L574.502 390.22L574.94 387.253ZM566.356 495.432L567.008 492.504L563.99 491.831L563.409 494.869L566.356 495.432ZM316.158 734.944L316.102 731.945L313.158 732V734.944H316.158ZM316.158 735V738H319.158V735H316.158ZM313.158 734.986L313.186 731.986L313.158 731.986L313.13 731.986L313.158 734.986ZM310.158 735H307.158V738H310.158V735ZM310.158 734.944H313.158V732L310.214 731.945L310.158 734.944ZM59.9473 495.362L62.894 494.8L62.3062 491.722L59.257 492.443L59.9473 495.362ZM50.0561 387.423L50.621 390.369L53.0066 389.912L53.0555 387.483L50.0561 387.423ZM577.94 387.19C574.9 240.802 457.269 123 312.5 123V129C453.904 129 568.967 244.091 571.941 387.315L577.94 387.19ZM610 441.5C610 426.87 606.37 413.429 600.295 403.219C594.242 393.046 585.556 385.787 575.379 384.285L574.502 390.22C582.316 391.374 589.661 397.081 595.139 406.287C600.596 415.458 604 427.813 604 441.5H610ZM571.5 499C582.651 499 592.349 492.064 599.116 481.675C605.901 471.258 610 457.046 610 441.5H604C604 456.054 600.152 469.092 594.089 478.4C588.007 487.736 579.955 493 571.5 493V499ZM565.703 498.36C567.593 498.781 569.53 499 571.5 499V493C569.976 493 568.477 492.831 567.008 492.504L565.703 498.36ZM316.214 737.944C398.653 736.402 456.788 703.377 496.882 656.883C536.894 610.483 558.823 550.815 569.302 495.995L563.409 494.869C553.05 549.062 531.436 607.625 492.338 652.965C453.32 698.212 396.776 730.436 316.102 731.945L316.214 737.944ZM319.158 735V734.944H313.158V735H319.158ZM313.13 737.986C314.136 737.995 315.145 738 316.158 738V732C315.164 732 314.173 731.995 313.186 731.986L313.13 737.986ZM310.158 738C311.171 738 312.18 737.995 313.186 737.986L313.13 731.986C312.143 731.995 311.152 732 310.158 732V738ZM307.158 734.944V735H313.158V734.944H307.158ZM57.0005 495.925C67.4718 550.752 89.3955 610.438 129.409 656.854C169.503 703.363 227.646 736.402 310.102 737.944L310.214 731.945C229.523 730.436 172.972 698.198 133.953 652.936C94.8539 607.581 73.2457 549 62.894 494.8L57.0005 495.925ZM54.5 499C56.5891 499 58.6399 498.754 60.6375 498.282L59.257 492.443C57.7031 492.81 56.1155 493 54.5 493V499ZM16 441.5C16 457.046 20.0988 471.258 26.884 481.675C33.6511 492.064 43.3489 499 54.5 499V493C46.0449 493 37.9928 487.736 31.9115 478.4C25.8482 469.092 22 456.054 22 441.5H16ZM49.4913 384.477C39.6094 386.371 31.2155 393.697 25.3663 403.796C19.4959 413.931 16 427.141 16 441.5H22C22 428.069 25.2778 415.92 30.5583 406.803C35.86 397.65 42.9942 391.831 50.621 390.369L49.4913 384.477ZM312.5 123C167.674 123 50.0074 240.894 47.0567 387.362L53.0555 387.483C55.9424 244.181 171.04 129 312.5 129V123Z" fill="#B67B59" mask="url(#path-3-inside-1_48_93)"/>
</svg>
