<svg width="60" height="60" viewBox="0 0 60 60" fill="none" xmlns="http://www.w3.org/2000/svg">
<mask id="mask0_60_135" style="mask-type:alpha" maskUnits="userSpaceOnUse" x="0" y="0" width="60" height="60">
<circle cx="30" cy="30" r="30" fill="black"/>
</mask>
<g mask="url(#mask0_60_135)">
<rect x="-36" y="-19" width="128" height="108" fill="black"/>
<path d="M41.6516 31.7996C38.3578 27.1721 31.8609 25.5521 30.0098 28.4445C28.1587 25.5521 21.6484 27.1721 18.3547 31.7996C15.0613 36.4272 10 35.3859 10 35.3859C10 35.3859 12.1293 40.0134 20.0049 40.0134C27.8804 40.0134 30.0098 34.3445 30.0098 34.3445C30.0098 34.3445 32.1293 40.0134 40.0049 40.0134C47.8804 40.0139 50 35.3859 50 35.3859C50 35.3859 44.9453 36.4272 41.6516 31.7996Z" fill="white"/>
</g>
</svg>
