<svg width="60" height="60" viewBox="0 0 60 60" fill="none" xmlns="http://www.w3.org/2000/svg">
<mask id="mask0_60_135" style="mask-type:alpha" maskUnits="userSpaceOnUse" x="0" y="0" width="60" height="60">
<circle cx="30" cy="30" r="30" fill="black"/>
</mask>
<g mask="url(#mask0_60_135)">
<rect x="-35" y="-20" width="128" height="108" fill="black"/>
<path d="M58.9852 67.7675L57.648 59.7843C57.2572 57.4542 55.3526 55.6533 53.0148 55.4056L40.657 54.0994C39.7626 54.0052 39.0885 53.2516 39.0885 52.3474V45.9893C41.9127 43.5332 44.0302 40.1026 45.0547 36.5414C45.6235 36.4646 46.175 36.3062 46.6788 36.0551C47.691 35.551 49.029 34.4537 49.6531 32.0879C50.6968 28.1275 49.9289 25.2886 47.5452 24.2987C46.9303 24.0431 46.281 23.9436 45.6273 23.9723C44.7027 15.5529 38.0495 9 30 9C21.9506 9 15.2971 15.5527 14.3724 23.9721C13.7186 23.9434 13.0692 24.043 12.4541 24.2987C10.0704 25.2886 9.30219 28.1279 10.3469 32.0882C10.9707 34.4534 12.3083 35.551 13.3205 36.0551C13.8246 36.3062 14.3762 36.4646 14.9451 36.5414C15.9695 40.1025 18.087 43.533 20.9112 45.9891V52.3474C20.9112 53.2516 20.2367 54.0052 19.3426 54.0994L6.98456 55.4056C4.64709 55.6533 2.7418 57.4542 2.35171 59.7843L1.01478 67.7675C0.918289 68.3428 1.30427 68.8885 1.87675 68.9856C1.93595 68.9952 1.99446 69 2.05264 69C2.55633 69 3.00152 68.6346 3.08775 68.1185L4.42467 60.1352C4.65907 58.7369 5.80197 57.6572 7.20459 57.5085L19.5623 56.2024C21.5299 55.9946 23.0136 54.3369 23.0136 52.3474V47.5493C25.1053 48.8495 27.4712 49.6278 30 49.6278C32.5287 49.6278 34.8945 48.8496 36.9861 47.5495V52.3474C36.9861 54.3369 38.4698 55.9939 40.4367 56.2024L52.7944 57.5085C54.1973 57.6565 55.3402 58.7369 55.5743 60.1352L56.9116 68.1185C56.9985 68.6346 57.4433 69 57.947 69C58.0052 69 58.0641 68.9952 58.1229 68.9856C58.6957 68.8885 59.0817 68.3428 58.9852 67.7675ZM45.5804 28.4751C45.6823 27.666 45.7328 26.8668 45.7375 26.0947C45.7782 26.0928 45.82 26.0823 45.8603 26.0823C46.1676 26.0823 46.4653 26.1371 46.7432 26.2523C48.5923 27.0206 47.973 30.2106 47.6205 31.5459C47.2818 32.83 46.6508 33.7098 45.7454 34.1609C45.6877 34.1897 45.6216 34.2014 45.5619 34.2263C45.6799 33.4384 45.7412 32.6531 45.7412 31.8797C45.7412 31.2098 45.6933 30.5347 45.5982 29.873C45.5298 29.392 45.5236 28.9217 45.5804 28.4751ZM14.4378 34.2262C14.3778 34.2012 14.3115 34.1895 14.2536 34.1606C13.3482 33.7098 12.7175 32.83 12.3788 31.5459C12.0267 30.2106 11.407 27.021 13.2568 26.2523C13.5713 26.1222 13.9115 26.0728 14.262 26.0893C14.2665 26.8631 14.3172 27.6638 14.4192 28.4751C14.4757 28.921 14.4695 29.3913 14.4008 29.873C14.3063 30.5357 14.2584 31.2108 14.2584 31.8797C14.2584 32.6531 14.3198 33.4383 14.4378 34.2262ZM30 47.5138C22.4449 47.5138 16.3608 38.9608 16.3608 31.8797C16.3608 31.3109 16.4015 30.7367 16.4819 30.1731C16.5774 29.5035 16.5853 28.8425 16.5052 28.2091C16.4094 27.4487 16.3608 26.6993 16.3608 25.9812C16.3608 17.7832 22.4794 11.114 30 11.114C37.5206 11.114 43.6389 17.7832 43.6389 25.9812C43.6389 26.6993 43.5903 27.4487 43.4945 28.2091C43.4144 28.8439 43.4219 29.5045 43.5177 30.1738C43.5978 30.7363 43.6389 31.3102 43.6389 31.8797C43.6389 38.9608 37.5548 47.5138 30 47.5138Z" fill="white"/>
</g>
</svg>
