<svg width="60" height="60" viewBox="0 0 60 60" fill="none" xmlns="http://www.w3.org/2000/svg">
<circle cx="30" cy="30" r="30" fill="black"/>
<path d="M49.7424 31.4972L39.8851 24.3194C37.8462 22.8341 35.5371 22.5946 33.3866 23.6428L32.1066 24.2669C30.7288 24.9386 29.2722 24.9392 27.8934 24.2671L26.6138 23.6428C24.4624 22.5941 22.1544 22.8347 20.1149 24.3194L10.2578 31.4972C10.0957 31.6153 10.0002 31.7999 10 31.9962C9.99979 32.1921 10.0946 32.3771 10.2563 32.4956C15.0328 35.9938 22.229 38 29.9999 38C37.7712 38 44.9678 35.9938 49.7437 32.4956C49.9056 32.3771 50.0004 32.1921 50 31.9962C49.9996 31.7999 49.9043 31.6153 49.7424 31.4972ZM20.8945 25.3187C22.5423 24.1184 24.3183 23.9253 26.0304 24.76L27.3099 25.3842C29.0703 26.2423 30.9308 26.2419 32.6901 25.3842L33.9701 24.7602C35.6822 23.9249 37.4584 24.1186 39.1055 25.3187L47.1275 31.1603L42.7734 30.6015C42.5146 30.5685 42.2561 30.5277 41.9989 30.4788L38.3804 29.7961C36.9267 29.5218 35.4469 29.4701 33.9819 29.6418L31.5379 29.9281C30.518 30.0477 29.483 30.0481 28.4623 29.9281L26.0177 29.6418C24.5524 29.4703 23.0722 29.522 21.6186 29.7963L18.0044 30.4784C17.7468 30.5269 17.4884 30.5681 17.2291 30.6015L12.8725 31.1604L20.8945 25.3187ZM29.9999 36.7486C23.2681 36.7486 17.0094 35.2029 12.5032 32.4704L17.3996 31.8422C17.6849 31.8056 17.969 31.7603 18.2525 31.7066L21.8669 31.0247C23.1869 30.775 24.5312 30.7281 25.8617 30.8842L28.3063 31.1705C29.4299 31.3017 30.5695 31.3017 31.6939 31.1705L34.1379 30.8842C35.4684 30.7277 36.812 30.7754 38.1325 31.0243L41.751 31.7074C42.0335 31.7603 42.3172 31.8052 42.6027 31.8422L47.4972 32.4703C42.9911 35.2029 36.7323 36.7486 29.9999 36.7486Z" fill="white"/>
</svg>
