<svg width="60" height="60" viewBox="0 0 60 60" fill="none" xmlns="http://www.w3.org/2000/svg">
<mask id="mask0_60_135" style="mask-type:alpha" maskUnits="userSpaceOnUse" x="0" y="0" width="60" height="60">
<circle cx="30" cy="30" r="30" fill="black"/>
</mask>
<g mask="url(#mask0_60_135)">
<rect x="-35" y="-20" width="128" height="108" fill="black"/>
<path d="M49.677 25.4381L47.566 24.7051C47.212 24.5821 46.8653 24.4336 46.543 24.2369C46.2244 24.0424 45.8839 23.8777 45.5229 23.7491C43.4129 22.999 40.0242 22.4306 35.851 23.995C34.4197 24.5315 33.308 25.6071 32.6878 26.9234C31.9906 26.4904 30.9926 26.2672 29.9997 26.2672C29.0072 26.2672 28.0094 26.4904 27.3122 26.9234C26.692 25.6071 25.5803 24.5315 24.149 23.995C19.9758 22.4306 16.5871 22.999 14.4771 23.7491C14.116 23.8777 13.7756 24.0424 13.457 24.2369C13.1347 24.4336 12.788 24.5821 12.434 24.7051L10.3229 25.4381C10.1302 25.505 10 25.6943 10 25.9076V27.4889C10 27.602 10.0369 27.7116 10.1045 27.7996L10.6143 28.4622C10.6887 28.559 10.7223 28.681 10.7141 28.805C10.6899 29.1669 10.6982 29.5342 10.7468 29.904C11.7431 37.4902 17.4303 37.9826 17.9949 38.0118C18.5465 38.0793 19.0653 38.1111 19.5576 38.1111C25.6197 38.1105 27.3246 33.2727 27.7953 30.2264C27.8736 29.7187 27.8805 29.2129 27.8243 28.7196C27.8609 28.6343 27.8863 28.5422 27.8921 28.4441C28.0243 28.2579 28.7594 27.8621 29.9997 27.8621C31.2407 27.8621 31.9757 28.2579 32.1079 28.4441C32.1137 28.5422 32.1392 28.6342 32.1758 28.7195C32.1195 29.2127 32.1264 29.7187 32.2047 30.2264C32.6754 33.2727 34.3803 38.1105 40.4424 38.1111C40.9347 38.1111 41.4535 38.0793 42.0051 38.0118C42.5697 37.9826 48.2569 37.4902 49.2532 29.904C49.3017 29.5342 49.31 29.1669 49.2859 28.805C49.2776 28.681 49.3113 28.559 49.3857 28.4622L49.8954 27.7996C49.9631 27.7116 50 27.602 50 27.4889V25.9076C50 25.6943 49.8698 25.505 49.677 25.4381ZM26.5463 30.0136C25.7698 35.0382 22.9346 37.2845 18.1209 36.6895L18.056 36.685C17.846 36.6811 12.8908 36.5052 11.9995 29.7223C11.7314 27.681 12.9446 25.6982 14.8835 25.0078C16.8021 24.3246 19.8943 23.8127 23.724 25.2459C25.0533 25.7443 26.0134 26.8403 26.3994 28.1286C26.4736 28.3762 26.5248 28.6292 26.5538 28.8886C26.5952 29.2582 26.6049 29.6339 26.5463 30.0136ZM48.0005 29.7223C47.1092 36.5052 42.154 36.6811 41.944 36.685L41.8791 36.6895C37.0654 37.2845 34.2302 35.0382 33.4537 30.0136C33.3951 29.634 33.4048 29.2583 33.4462 28.8886C33.4752 28.6293 33.5265 28.3761 33.6006 28.1285C33.9866 26.8403 34.9467 25.7443 36.276 25.2459C40.1057 23.8127 43.1979 24.3246 45.1165 25.0078C47.0554 25.6982 48.2686 27.681 48.0005 29.7223Z" fill="white"/>
</g>
</svg>
