<svg width="60" height="60" viewBox="0 0 60 60" fill="none" xmlns="http://www.w3.org/2000/svg">
<circle cx="30" cy="30" r="30" fill="black"/>
<path d="M24.0475 31.2633L25.6618 16.5413C25.6983 16.2084 25.9989 15.9666 26.3385 16.0038C26.6756 16.0398 26.9194 16.3389 26.8826 16.6722L25.2685 31.3936C25.2345 31.7049 24.9682 31.9353 24.6587 31.9353C24.6365 31.9353 24.6143 31.9339 24.5918 31.9317C24.2548 31.8956 24.0109 31.5962 24.0475 31.2633ZM35.7315 31.3936C35.7655 31.7049 36.0318 31.9353 36.341 31.9353C36.3632 31.9353 36.3854 31.9339 36.4079 31.9317C36.7453 31.8956 36.9888 31.5962 36.9523 31.2633L35.3382 16.5413C35.3017 16.2084 34.9986 15.9672 34.6618 16.0038C34.3242 16.0398 34.0809 16.3389 34.1172 16.6722L35.7315 31.3936ZM41.8562 34.4387C40.9169 33.3283 39.5385 32.6913 38.0748 32.6913C37.829 32.6913 37.5748 32.7126 37.2967 32.7564C36.9941 32.8041 36.7809 33.0625 36.7812 33.3555C36.7812 33.3871 36.7815 33.419 36.7868 33.4512C36.8405 33.7822 37.1579 34.0073 37.4899 33.9546C37.7034 33.9208 37.895 33.9044 38.0748 33.9044C39.1739 33.9044 40.2085 34.3829 40.9141 35.2166C41.6295 36.0624 41.9121 37.1375 41.7104 38.2442C41.4585 39.6256 40.3585 40.7756 38.9722 41.1057C38.3832 41.2457 37.793 41.2485 37.2211 41.1127C36.6545 40.9785 36.0492 41.0885 35.5183 41.422C34.1152 42.302 32.3332 42.7866 30.5003 42.7866C28.6674 42.7866 26.8857 42.3025 25.4834 41.4229C24.9511 41.0894 24.3455 40.9801 23.7781 41.1132C23.2048 41.2493 22.614 41.2457 22.0233 41.1043C20.6382 40.7728 19.5393 39.6214 19.2887 38.2397C19.0882 37.1341 19.3719 36.0599 20.0873 35.2154C20.793 34.3824 21.8272 33.9044 22.9253 33.9044C23.1056 33.9044 23.2966 33.9208 23.5098 33.9546C23.8413 34.0056 24.1598 33.7822 24.2132 33.4514C24.2182 33.419 24.2188 33.3871 24.2188 33.3555C24.2188 33.0625 24.0059 32.8041 23.7036 32.7564C23.4258 32.7126 23.171 32.6913 22.9253 32.6913C21.4626 32.6913 20.0848 33.3275 19.1455 34.4364C18.2064 35.5453 17.8179 37.0094 18.08 38.4538C18.4149 40.3012 19.8831 41.8404 21.7334 42.284C22.5157 42.4711 23.2997 42.4741 24.064 42.2934C24.302 42.2377 24.5792 42.2928 24.8253 42.4472C26.4216 43.4486 28.4371 44 30.5003 44C32.5632 44 34.5792 43.4483 36.1767 42.4461C36.4214 42.2926 36.6992 42.2352 36.9343 42.2928C37.6972 42.4739 38.4795 42.4714 39.2607 42.2851C41.1118 41.8443 42.5824 40.3068 42.9192 38.459C43.1826 37.0141 42.7953 35.5484 41.8562 34.4387Z" fill="white"/>
</svg>
