<svg width="60" height="60" viewBox="0 0 60 60" fill="none" xmlns="http://www.w3.org/2000/svg">
<mask id="mask0_60_135" style="mask-type:alpha" maskUnits="userSpaceOnUse" x="0" y="0" width="60" height="60">
<circle cx="30" cy="30" r="30" fill="black"/>
</mask>
<g mask="url(#mask0_60_135)">
<rect x="-36" y="-19" width="128" height="108" fill="black"/>
<path d="M49.9646 29.9415C49.5985 28.5882 48.9515 27.3153 47.9632 26.3142C47.2113 25.5544 46.3012 24.9877 45.3218 24.5783C44.2429 24.126 43.068 23.924 41.9002 24.0259C40.3662 24.1582 38.9425 24.8179 37.604 25.5473C36.9393 25.9102 34.7512 27.2224 34.2659 27.9857C33.7718 28.7634 34.9591 30.8837 36.1483 30.2419C36.5056 30.0488 37.8404 29.0727 38.1782 28.8457C38.834 28.4041 39.497 27.9679 40.1743 27.5567C40.9261 27.099 41.6229 26.72 42.4868 26.5538C44.8704 26.0979 47.062 27.4405 48.6226 29.1442C48.9266 29.4749 49.2127 29.8218 49.4829 30.1811C49.57 30.3527 49.7975 30.3456 49.9131 30.2294C49.9966 30.1596 50.0322 30.0524 49.9646 29.9415Z" fill="white"/>
<path d="M10.0354 29.9415C10.4015 28.5882 11.0485 27.3153 12.0368 26.3142C12.7887 25.5544 13.6988 24.9877 14.6782 24.5783C15.7571 24.126 16.932 23.924 18.0998 24.0259C19.6338 24.1582 21.0575 24.8179 22.396 25.5473C23.0607 25.9102 25.2488 27.2224 25.7341 27.9857C26.2282 28.7634 25.0409 30.8837 23.8517 30.2419C23.4944 30.0488 22.1596 29.0727 21.8218 28.8457C21.166 28.4041 20.503 27.9679 19.8257 27.5567C19.0739 27.099 18.3771 26.72 17.5132 26.5538C15.1296 26.0979 12.938 27.4405 11.3774 29.1442C11.0734 29.4749 10.7873 29.8218 10.5171 30.1811C10.43 30.3527 10.2025 30.3456 10.0869 30.2294C10.0034 30.1596 9.96784 30.0524 10.0354 29.9415Z" fill="white"/>
</g>
</svg>
