<svg width="627" height="799" viewBox="0 0 627 799" fill="none" xmlns="http://www.w3.org/2000/svg">
<path fill-rule="evenodd" clip-rule="evenodd" d="M376.502 637.171C376.628 637.28 376.753 637.39 376.876 637.5C364.52 648.519 340.4 656 312.669 656C291.933 656 273.217 651.817 259.928 645.101C256.107 643.449 252.609 641.21 249.59 638.47C249.203 638.15 248.827 637.827 248.461 637.5L248.514 637.452C248.341 637.282 248.17 637.109 248 636.935C251.743 624.36 262.492 613.803 276.962 610.243C289.83 607.076 302.66 610.178 311.778 617.518C321.128 608.487 335.498 604.531 349.756 608.352C364.149 612.208 374.679 622.985 378.163 635.634C377.626 636.163 377.072 636.676 376.502 637.171Z" fill="#AF0000"/>
</svg>
