<svg width="627" height="799" viewBox="0 0 627 799" fill="none" xmlns="http://www.w3.org/2000/svg">
<path d="M289.529 524.057L295.276 470.953C295.406 469.752 296.476 468.88 297.685 469.014C298.885 469.144 299.753 470.223 299.622 471.425L293.876 524.527C293.755 525.65 292.807 526.481 291.705 526.481C291.626 526.481 291.547 526.476 291.467 526.468C290.267 526.338 289.399 525.258 289.529 524.057ZM331.124 524.527C331.245 525.65 332.193 526.481 333.294 526.481C333.373 526.481 333.452 526.476 333.532 526.468C334.733 526.338 335.6 525.258 335.47 524.057L329.724 470.953C329.594 469.752 328.515 468.882 327.316 469.014C326.114 469.144 325.248 470.223 325.377 471.425L331.124 524.527ZM352.928 535.511C349.584 531.506 344.677 529.208 339.466 529.208C338.591 529.208 337.686 529.285 336.696 529.443C335.619 529.615 334.86 530.547 334.861 531.604C334.861 531.718 334.862 531.833 334.881 531.949C335.072 533.143 336.202 533.955 337.384 533.765C338.144 533.643 338.826 533.584 339.466 533.584C343.379 533.584 347.062 535.31 349.574 538.317C352.121 541.368 353.127 545.246 352.409 549.238C351.512 554.221 347.596 558.369 342.661 559.56C340.564 560.065 338.463 560.075 336.427 559.585C334.41 559.101 332.255 559.498 330.365 560.701C325.37 563.875 319.026 565.623 312.501 565.623C305.976 565.623 299.633 563.877 294.641 560.704C292.746 559.501 290.59 559.107 288.57 559.587C286.529 560.078 284.426 560.065 282.323 559.555C277.392 558.359 273.48 554.206 272.588 549.222C271.874 545.234 272.884 541.359 275.431 538.313C277.943 535.308 281.625 533.584 285.534 533.584C286.176 533.584 286.856 533.643 287.615 533.765C288.795 533.949 289.929 533.143 290.119 531.95C290.137 531.833 290.139 531.718 290.139 531.604C290.139 530.547 289.381 529.615 288.305 529.443C287.316 529.285 286.409 529.208 285.534 529.208C280.327 529.208 275.422 531.503 272.078 535.503C268.735 539.503 267.352 544.784 268.285 549.994C269.477 556.658 274.704 562.21 281.291 563.81C284.076 564.485 286.867 564.496 289.588 563.844C290.435 563.643 291.422 563.842 292.298 564.399C297.981 568.011 305.156 570 312.501 570C319.845 570 327.022 568.01 332.709 564.395C333.58 563.841 334.569 563.634 335.406 563.842C338.122 564.495 340.907 564.486 343.688 563.814C350.278 562.224 355.513 556.678 356.712 550.013C357.65 544.801 356.271 539.514 352.928 535.511Z" fill="black" fill-opacity="0.35"/>
</svg>
